<svg width="50" height="50" viewBox="0 0 50 50" fill="none" xmlns="http://www.w3.org/2000/svg">
<path d="M25.0007 5.20834C19.7516 5.20834 14.7175 7.29353 11.0058 11.0052C7.29417 14.7168 5.20898 19.7509 5.20898 25C5.20898 30.2491 7.29417 35.2832 11.0058 38.9948C14.7175 42.7065 19.7516 44.7917 25.0007 44.7917C30.2497 44.7917 35.2838 42.7065 38.9955 38.9948C42.7071 35.2832 44.7923 30.2491 44.7923 25C44.7923 19.7509 42.7071 14.7168 38.9955 11.0052C35.2838 7.29353 30.2497 5.20834 25.0007 5.20834Z" fill="#2A2F96"/>
<path d="M4.78854 31.25H3.125C3.125 31.25 7.37188 28.0375 16.5917 25.4844C16.5917 25.4844 31.3854 20.9917 40.9958 14.4604C44.3385 11.6427 46.949 9.12916 47.9167 7.29166C47.9167 7.29166 46.674 12.2135 40.9104 18.0739C39.7823 18.6521 39.3417 19.4167 38.5417 19.7917C38.6729 19.6437 38.4417 18.8844 38.5417 18.75C38.5417 18.75 31.0469 22.2448 15.6042 26.8437C15.6052 26.8417 9.10625 28.4917 4.78854 31.25Z" fill="#E53935"/>
<path d="M20.085 26.2719L21.6507 26.2979L20.8475 24.3865L20.085 26.2719ZM19.759 27.4646L19.4736 28.4646L20.309 28.924L17.5371 28.9198L18.3975 28.4375L20.1829 22.6021L19.209 22.1156H22.5079L25.2569 28.4365L25.8069 28.9229H21.9579L22.5079 28.4365L21.9579 27.4636L19.759 27.4646ZM30.3329 24.3479C30.9329 24.4886 32.9642 25.5386 32.2579 27.6073C32.2579 27.6073 31.3819 30.1865 26.5965 28.6469L26.0632 29.1667V27.0886L26.5965 27.6083C26.5965 27.6083 30.234 28.9844 30.2152 27.2792C30.21 26.9469 29.5871 26.399 27.9184 26.1875C27.9184 26.1875 26.0413 26.1323 26.0632 23.9708C26.0715 23.0927 26.7152 20.8833 31.3975 22.4115L31.8809 21.8719L31.8694 23.9167L31.3975 23.45C31.3975 23.45 28.6256 22.5813 28.3496 23.4417C28.0559 24.3552 29.4954 24.1511 30.3329 24.3479Z" fill="#FAFAFA"/>
<path d="M41.1052 17.8636C40.001 19.1386 37.7688 20.8292 36.0021 22.1448C36.0021 22.1448 21.8083 31.3167 16.176 35.4458C16.176 35.4458 11.8354 38.2792 9.375 42.7083V41.0229C9.375 41.0229 11.724 37.7281 17.276 33.7969C22.1594 30.3386 36.751 21.6083 38.5417 18.75L41.1052 17.8636Z" fill="#E53935"/>
<path d="M9.02734 22.1427H12.3263L15.0753 26.5198V22.6292L14.5253 22.1427H16.7242L16.1742 22.6292V28.4646L16.7242 28.951H13.4253L10.6773 24.575V28.4646L11.2263 28.951H9.02734L9.57734 28.4646V22.6292L9.02734 22.1427ZM35.8742 26.3281L37.5617 26.3208L36.6555 24.3219L35.8742 26.3281ZM35.7023 27.4646L35.3586 28.4375L36.2523 28.924L33.4805 28.9198L34.3409 28.4375L36.1263 22.6021L35.1523 22.1156H38.4513L41.2003 28.4365L41.7503 28.9229H37.9023L38.4523 28.4365L37.9023 27.4635L35.7023 27.4646Z" fill="#FAFAFA"/>
<path d="M34.996 31.5167C34.222 28.4615 32.4679 24.9615 30.0564 21.6604C25.046 14.8042 18.7012 10.9583 15.9127 13.0854C14.5418 14.1333 14.2179 16.4188 15.0054 19.524C15.7793 22.5792 17.5335 26.0792 19.945 29.3802C20.995 30.8167 21.6304 31.6125 22.7522 32.7583L23.4606 33.024C22.3522 31.8886 21.2533 30.6031 20.2116 29.1771C17.8252 25.9115 16.0898 22.4531 15.3273 19.4396C14.5773 16.4771 14.8554 14.3167 16.1116 13.3573C16.5898 12.9917 17.1835 12.8177 17.8627 12.8177C20.9356 12.8177 25.7773 16.3719 29.7908 21.8636C32.1772 25.1292 33.9127 28.5875 34.6752 31.6011C35.4252 34.5636 35.147 36.724 33.8908 37.6833C32.2064 38.9698 29.0939 37.8719 25.7877 35.1688L25.5585 35.4031C28.0095 37.399 30.3773 38.5417 32.1877 38.5417C32.9252 38.5417 33.5689 38.3531 34.0887 37.9542C35.4595 36.9094 35.7814 34.6219 34.996 31.5167Z" fill="#FAFAFA"/>
<path d="M22.3237 31.645C22.2363 31.7275 22.2322 31.8911 22.3122 32.0997C22.3923 32.3083 22.55 32.5449 22.7506 32.7575C22.9513 32.97 23.1784 33.1411 23.3821 33.2331C23.5857 33.3251 23.7493 33.3304 23.8367 33.2479C23.924 33.1654 23.9282 33.0018 23.8481 32.7932C23.768 32.5846 23.6103 32.348 23.4097 32.1354C23.209 31.9229 22.9819 31.7518 22.7782 31.6598C22.5746 31.5678 22.411 31.5625 22.3237 31.645Z" fill="#FAFAFA"/>
<path d="M28.6458 7.69687L28.8865 9.35416C28.8979 9.4302 28.9323 9.49999 28.9875 9.5552C29.0427 9.60937 29.1125 9.64583 29.1885 9.65624L30.8448 9.89583L29.1875 10.1365C29.1115 10.1479 29.0417 10.1823 28.9865 10.2375C28.9323 10.2917 28.8958 10.3625 28.8854 10.4385L28.6458 12.0948L28.4052 10.4375C28.3937 10.3615 28.3594 10.2917 28.3042 10.2365C28.249 10.1823 28.1792 10.1458 28.1031 10.1354L26.4469 9.89583L28.1042 9.6552C28.1802 9.64374 28.25 9.60937 28.3052 9.55416C28.3594 9.49999 28.3958 9.42916 28.4062 9.35312L28.6458 7.69687ZM19.2708 14.9885L19.5115 16.6458C19.5229 16.7219 19.5573 16.7917 19.6125 16.8469C19.6677 16.901 19.7375 16.9375 19.8135 16.9479L21.4698 17.1875L19.8125 17.4281C19.7365 17.4396 19.6667 17.474 19.6115 17.5292C19.5573 17.5833 19.5208 17.6542 19.5104 17.7302L19.2708 19.3865L19.0302 17.7292C19.0187 17.6531 18.9844 17.5833 18.9292 17.5281C18.874 17.474 18.8042 17.4375 18.7281 17.4271L17.0719 17.1875L18.7292 16.9469C18.8052 16.9354 18.875 16.901 18.9302 16.8458C18.9844 16.7917 19.0208 16.7208 19.0312 16.6448L19.2708 14.9885ZM20.3125 36.8635L20.5531 38.5208C20.5646 38.5969 20.599 38.6667 20.6542 38.7219C20.7094 38.776 20.7792 38.8125 20.8552 38.8229L22.5115 39.0625L20.8542 39.3031C20.7781 39.3146 20.7083 39.3489 20.6531 39.4042C20.599 39.4583 20.5625 39.5292 20.5521 39.6052L20.3125 41.2615L20.0719 39.6042C20.0604 39.5281 20.026 39.4583 19.9708 39.4031C19.9156 39.349 19.8458 39.3125 19.7698 39.3021L18.1135 39.0625L19.7708 38.8219C19.8469 38.8104 19.9167 38.776 19.9719 38.7208C20.026 38.6667 20.0625 38.5958 20.0729 38.5198L20.3125 36.8635ZM40.1042 29.5719L40.3448 31.2292C40.3562 31.3052 40.3906 31.375 40.4458 31.4302C40.5 31.4844 40.5708 31.5208 40.6469 31.5312L42.3031 31.7708L40.6458 32.0115C40.5698 32.0229 40.5 32.0573 40.4448 32.1125C40.3906 32.1677 40.3542 32.2375 40.3437 32.3135L40.1042 33.9698L39.8635 32.3125C39.8521 32.2365 39.8177 32.1667 39.7625 32.1115C39.7083 32.0573 39.6375 32.0208 39.5615 32.0104L37.9052 31.7708L39.5625 31.5302C39.6385 31.5187 39.7083 31.4844 39.7635 31.4292C39.8177 31.374 39.8542 31.3042 39.8646 31.2281L40.1042 29.5719ZM38.0208 34.375C37.8827 34.375 37.7502 34.4299 37.6525 34.5275C37.5549 34.6252 37.5 34.7577 37.5 34.8958C37.5 35.034 37.5549 35.1664 37.6525 35.2641C37.7502 35.3618 37.8827 35.4167 38.0208 35.4167C38.159 35.4167 38.2914 35.3618 38.3891 35.2641C38.4868 35.1664 38.5417 35.034 38.5417 34.8958C38.5417 34.7577 38.4868 34.6252 38.3891 34.5275C38.2914 34.4299 38.159 34.375 38.0208 34.375ZM13.0208 33.3333C12.8827 33.3333 12.7502 33.3882 12.6525 33.4859C12.5549 33.5835 12.5 33.716 12.5 33.8542C12.5 33.9923 12.5549 34.1248 12.6525 34.2224C12.7502 34.3201 12.8827 34.375 13.0208 34.375C13.159 34.375 13.2914 34.3201 13.3891 34.2224C13.4868 34.1248 13.5417 33.9923 13.5417 33.8542C13.5417 33.716 13.4868 33.5835 13.3891 33.4859C13.2914 33.3882 13.159 33.3333 13.0208 33.3333ZM9.89583 31.25C9.7577 31.25 9.62522 31.3049 9.52755 31.4025C9.42987 31.5002 9.375 31.6327 9.375 31.7708C9.375 31.909 9.42987 32.0414 9.52755 32.1391C9.62522 32.2368 9.7577 32.2917 9.89583 32.2917C10.034 32.2917 10.1664 32.2368 10.2641 32.1391C10.3618 32.0414 10.4167 31.909 10.4167 31.7708C10.4167 31.6327 10.3618 31.5002 10.2641 31.4025C10.1664 31.3049 10.034 31.25 9.89583 31.25ZM25.5208 11.4583C25.3827 11.4583 25.2502 11.5132 25.1525 11.6109C25.0549 11.7086 25 11.841 25 11.9792C25 12.1173 25.0549 12.2498 25.1525 12.3474C25.2502 12.4451 25.3827 12.5 25.5208 12.5C25.659 12.5 25.7914 12.4451 25.8891 12.3474C25.9868 12.2498 26.0417 12.1173 26.0417 11.9792C26.0417 11.841 25.9868 11.7086 25.8891 11.6109C25.7914 11.5132 25.659 11.4583 25.5208 11.4583ZM21.3542 18.75C21.216 18.75 21.0836 18.8049 20.9859 18.9025C20.8882 19.0002 20.8333 19.1327 20.8333 19.2708C20.8333 19.409 20.8882 19.5414 20.9859 19.6391C21.0836 19.7368 21.216 19.7917 21.3542 19.7917C21.4923 19.7917 21.6248 19.7368 21.7225 19.6391C21.8201 19.5414 21.875 19.409 21.875 19.2708C21.875 19.1327 21.8201 19.0002 21.7225 18.9025C21.6248 18.8049 21.4923 18.75 21.3542 18.75Z" fill="#FAFAFA"/>
</svg>
